<svg xmlns="http://www.w3.org/2000/svg" width="1440" height="900"><path d="M739,367L749,280L640,250Z" fill="#feac3a" stroke="#feac3a" stroke-width="1.51"/><path d="M640,250L609,349L739,367Z" fill="#ffae3b" stroke="#ffae3b" stroke-width="1.51"/><path d="M739,367L907,340L749,280Z" fill="#fca133" stroke="#fca133" stroke-width="1.51"/><path d="M705,557L792,481L739,367Z" fill="#fc9527" stroke="#fc9527" stroke-width="1.51"/><path d="M749,280L675,115L640,250Z" fill="#ffb64a" stroke="#ffb64a" stroke-width="1.51"/><path d="M640,250L463,254L609,349Z" fill="#ffba46" stroke="#ffba46" stroke-width="1.51"/><path d="M489,83L463,254L640,250Z" fill="#ffc659" stroke="#ffc659" stroke-width="1.51"/><path d="M609,349L705,557L739,367Z" fill="#fe9f2f" stroke="#fe9f2f" stroke-width="1.51"/><path d="M792,481L907,340L739,367Z" fill="#fc982b" stroke="#fc982b" stroke-width="1.51"/><path d="M749,280L825,138L675,115Z" fill="#ffb44e" stroke="#ffb44e" stroke-width="1.51"/><path d="M944,247L825,138L749,280Z" fill="#fcaa42" stroke="#fcaa42" stroke-width="1.51"/><path d="M463,254L448,383L609,349Z" fill="#ffba46" stroke="#ffba46" stroke-width="1.51"/><path d="M472,542L705,557L609,349Z" fill="#fda131" stroke="#fda131" stroke-width="1.51"/><path d="M907,340L944,247L749,280Z" fill="#faa135" stroke="#faa135" stroke-width="1.51"/><path d="M675,115L489,83L640,250Z" fill="#ffc45d" stroke="#ffc45d" stroke-width="1.51"/><path d="M517,-9L489,83L675,115Z" fill="#ffcd6e" stroke="#ffcd6e" stroke-width="1.51"/><path d="M448,383L472,542L609,349Z" fill="#feae3c" stroke="#feae3c" stroke-width="1.51"/><path d="M792,481L869,565L907,340Z" fill="#f98d23" stroke="#f98d23" stroke-width="1.51"/><path d="M907,340L1069,384L944,247Z" fill="#f6942d" stroke="#f6942d" stroke-width="1.51"/><path d="M705,557L869,565L792,481Z" fill="#f88a21" stroke="#f88a21" stroke-width="1.51"/><path d="M448,383L391,558L472,542Z" fill="#fdac3f" stroke="#fdac3f" stroke-width="1.51"/><path d="M463,254L363,321L448,383Z" fill="#fec150" stroke="#fec150" stroke-width="1.51"/><path d="M319,252L363,321L463,254Z" fill="#ffc95a" stroke="#ffc95a" stroke-width="1.51"/><path d="M472,542L531,637L705,557Z" fill="#f9982e" stroke="#f9982e" stroke-width="1.51"/><path d="M705,557L834,656L869,565Z" fill="#f4831e" stroke="#f4831e" stroke-width="1.51"/><path d="M489,83L374,128L463,254Z" fill="#ffcf68" stroke="#ffcf68" stroke-width="1.51"/><path d="M489,83L404,-121L374,128Z" fill="#ffda7e" stroke="#ffda7e" stroke-width="1.51"/><path d="M598,-112L517,-9L675,115Z" fill="#ffcd73" stroke="#ffcd73" stroke-width="1.51"/><path d="M374,128L319,252L463,254Z" fill="#ffce66" stroke="#ffce66" stroke-width="1.51"/><path d="M363,321L391,558L448,383Z" fill="#ffb649" stroke="#ffb649" stroke-width="1.51"/><path d="M642,730L834,656L705,557Z" fill="#f4831d" stroke="#f4831d" stroke-width="1.51"/><path d="M825,138L857,-56L675,115Z" fill="#ffbb60" stroke="#ffbb60" stroke-width="1.51"/><path d="M944,247L922,31L825,138Z" fill="#fbac50" stroke="#fbac50" stroke-width="1.51"/><path d="M472,542L391,558L531,637Z" fill="#f9a136" stroke="#f9a136" stroke-width="1.51"/><path d="M179,430L391,558L363,321Z" fill="#ffba54" stroke="#ffba54" stroke-width="1.51"/><path d="M1075,527L1069,384L907,340Z" fill="#f28621" stroke="#f28621" stroke-width="1.51"/><path d="M944,247L1051,140L922,31Z" fill="#f9a64c" stroke="#f9a64c" stroke-width="1.51"/><path d="M1075,527L907,340L869,565Z" fill="#f5841e" stroke="#f5841e" stroke-width="1.51"/><path d="M834,656L940,622L869,565Z" fill="#f17a19" stroke="#f17a19" stroke-width="1.51"/><path d="M1127,201L1051,140L944,247Z" fill="#f49d40" stroke="#f49d40" stroke-width="1.51"/><path d="M922,31L857,-56L825,138Z" fill="#feb660" stroke="#feb660" stroke-width="1.51"/><path d="M883,-94L857,-56L922,31Z" fill="#feb868" stroke="#feb868" stroke-width="1.51"/><path d="M531,637L642,730L705,557Z" fill="#f58c26" stroke="#f58c26" stroke-width="1.51"/><path d="M1077,778L1044,619L940,622Z" fill="#e56811" stroke="#e56811" stroke-width="1.51"/><path d="M582,745L642,730L531,637Z" fill="#f08926" stroke="#f08926" stroke-width="1.51"/><path d="M857,-56L598,-112L675,115Z" fill="#ffc56e" stroke="#ffc56e" stroke-width="1.51"/><path d="M236,-9L232,90L374,128Z" fill="#ffe08c" stroke="#ffe08c" stroke-width="1.51"/><path d="M553,813L582,745L409,800Z" fill="#e98828" stroke="#e98828" stroke-width="1.51"/><path d="M940,622L1075,527L869,565Z" fill="#f07818" stroke="#f07818" stroke-width="1.51"/><path d="M857,-56L848,-135L598,-112Z" fill="#ffc475" stroke="#ffc475" stroke-width="1.51"/><path d="M1070,-57L883,-94L922,31Z" fill="#fcb366" stroke="#fcb366" stroke-width="1.51"/><path d="M1051,140L1070,-57L922,31Z" fill="#f8ab5a" stroke="#f8ab5a" stroke-width="1.51"/><path d="M1069,384L1127,201L944,247Z" fill="#f29530" stroke="#f29530" stroke-width="1.51"/><path d="M1171,361L1127,201L1069,384Z" fill="#ed8b29" stroke="#ed8b29" stroke-width="1.51"/><path d="M853,787L940,622L834,656Z" fill="#eb7215" stroke="#eb7215" stroke-width="1.51"/><path d="M940,622L1044,619L1075,527Z" fill="#eb7115" stroke="#eb7115" stroke-width="1.51"/><path d="M883,-94L848,-135L857,-56Z" fill="#ffbd70" stroke="#ffbd70" stroke-width="1.51"/><path d="M1289,280L1171,361L1431,393Z" fill="#df7d22" stroke="#df7d22" stroke-width="1.51"/><path d="M1075,527L1171,361L1069,384Z" fill="#ed7f1d" stroke="#ed7f1d" stroke-width="1.51"/><path d="M642,730L853,787L834,656Z" fill="#eb7718" stroke="#eb7718" stroke-width="1.51"/><path d="M598,939L853,787L642,730Z" fill="#e47518" stroke="#e47518" stroke-width="1.51"/><path d="M374,128L232,90L319,252Z" fill="#ffd879" stroke="#ffd879" stroke-width="1.51"/><path d="M231,599L374,729L391,558Z" fill="#f8a446" stroke="#f8a446" stroke-width="1.51"/><path d="M404,-121L489,83L517,-9Z" fill="#ffd97e" stroke="#ffd97e" stroke-width="1.51"/><path d="M582,745L553,813L642,730Z" fill="#ea8423" stroke="#ea8423" stroke-width="1.51"/><path d="M409,800L582,745L531,637Z" fill="#ee8e2b" stroke="#ee8e2b" stroke-width="1.51"/><path d="M391,558L374,729L531,637Z" fill="#f69c38" stroke="#f69c38" stroke-width="1.51"/><path d="M179,430L363,321L319,252Z" fill="#ffc861" stroke="#ffc861" stroke-width="1.51"/><path d="M128,354L179,430L319,252Z" fill="#ffcb6a" stroke="#ffcb6a" stroke-width="1.51"/><path d="M457,-198L404,-121L598,-112Z" fill="#ffdd8b" stroke="#ffdd8b" stroke-width="1.51"/><path d="M598,-112L404,-121L517,-9Z" fill="#ffda83" stroke="#ffda83" stroke-width="1.51"/><path d="M179,430L231,599L391,558Z" fill="#fdb354" stroke="#fdb354" stroke-width="1.51"/><path d="M232,90L151,260L319,252Z" fill="#ffd87b" stroke="#ffd87b" stroke-width="1.51"/><path d="M1229,-33L1070,-57L1051,140Z" fill="#f2a55a" stroke="#f2a55a" stroke-width="1.51"/><path d="M883,-94L979,-164L848,-135Z" fill="#ffbb72" stroke="#ffbb72" stroke-width="1.51"/><path d="M1260,54L1051,140L1127,201Z" fill="#ee9b48" stroke="#ee9b48" stroke-width="1.51"/><path d="M848,-135L594,-218L598,-112Z" fill="#ffcd7f" stroke="#ffcd7f" stroke-width="1.51"/><path d="M232,90L116,173L151,260Z" fill="#ffdd86" stroke="#ffdd86" stroke-width="1.51"/><path d="M404,-121L236,-9L374,128Z" fill="#ffe08d" stroke="#ffe08d" stroke-width="1.51"/><path d="M179,430L151,586L231,599Z" fill="#fdb65d" stroke="#fdb65d" stroke-width="1.51"/><path d="M151,260L128,354L319,252Z" fill="#ffd270" stroke="#ffd270" stroke-width="1.51"/><path d="M177,766L409,800L374,729Z" fill="#ed9742" stroke="#ed9742" stroke-width="1.51"/><path d="M374,729L409,800L531,637Z" fill="#ef9433" stroke="#ef9433" stroke-width="1.51"/><path d="M594,-218L457,-198L598,-112Z" fill="#ffd88b" stroke="#ffd88b" stroke-width="1.51"/><path d="M404,-121L326,-136L236,-9Z" fill="#ffe699" stroke="#ffe699" stroke-width="1.51"/><path d="M1070,-57L979,-164L883,-94Z" fill="#fcb46c" stroke="#fcb46c" stroke-width="1.51"/><path d="M848,-135L979,-164L594,-218Z" fill="#ffc37b" stroke="#ffc37b" stroke-width="1.51"/><path d="M457,-198L326,-136L404,-121Z" fill="#ffe397" stroke="#ffe397" stroke-width="1.51"/><path d="M151,260L-66,291L128,354Z" fill="#ffd57b" stroke="#ffd57b" stroke-width="1.51"/><path d="M105,139L116,173L232,90Z" fill="#ffe18f" stroke="#ffe18f" stroke-width="1.51"/><path d="M1044,619L1241,577L1075,527Z" fill="#e66c12" stroke="#e66c12" stroke-width="1.51"/><path d="M853,787L947,842L940,622Z" fill="#e46910" stroke="#e46910" stroke-width="1.51"/><path d="M943,939L947,842L853,787Z" fill="#d7600e" stroke="#d7600e" stroke-width="1.51"/><path d="M231,599L177,766L374,729Z" fill="#f3a14d" stroke="#f3a14d" stroke-width="1.51"/><path d="M67,524L151,586L179,430Z" fill="#ffbb63" stroke="#ffbb63" stroke-width="1.51"/><path d="M116,173L-66,291L151,260Z" fill="#ffdc83" stroke="#ffdc83" stroke-width="1.51"/><path d="M128,354L67,524L179,430Z" fill="#ffc369" stroke="#ffc369" stroke-width="1.51"/><path d="M236,-9L105,139L232,90Z" fill="#fee595" stroke="#fee595" stroke-width="1.51"/><path d="M40,-102L105,139L236,-9Z" fill="#ffeba2" stroke="#ffeba2" stroke-width="1.51"/><path d="M947,842L1077,778L940,622Z" fill="#e0640e" stroke="#e0640e" stroke-width="1.51"/><path d="M1171,361L1289,280L1127,201Z" fill="#e98b2b" stroke="#e98b2b" stroke-width="1.51"/><path d="M1241,577L1171,361L1075,527Z" fill="#e77316" stroke="#e77316" stroke-width="1.51"/><path d="M1164,713L1241,577L1044,619Z" fill="#e0630d" stroke="#e0630d" stroke-width="1.51"/><path d="M1077,778L1164,713L1044,619Z" fill="#dd600c" stroke="#dd600c" stroke-width="1.51"/><path d="M553,813L598,939L642,730Z" fill="#e47d20" stroke="#e47d20" stroke-width="1.51"/><path d="M545,990L598,939L553,813Z" fill="#d77a22" stroke="#d77a22" stroke-width="1.51"/><path d="M1311,136L1260,54L1127,201Z" fill="#e99546" stroke="#e99546" stroke-width="1.51"/><path d="M1070,-57L1122,-244L979,-164Z" fill="#f8b070" stroke="#f8b070" stroke-width="1.51"/><path d="M-100,379L67,524L128,354Z" fill="#ffca72" stroke="#ffca72" stroke-width="1.51"/><path d="M151,586L177,766L231,599Z" fill="#f8aa57" stroke="#f8aa57" stroke-width="1.51"/><path d="M1260,54L1229,-33L1051,140Z" fill="#ee9e53" stroke="#ee9e53" stroke-width="1.51"/><path d="M1260,54L1358,-26L1229,-33Z" fill="#e69b57" stroke="#e69b57" stroke-width="1.51"/><path d="M1289,280L1311,136L1127,201Z" fill="#e68e37" stroke="#e68e37" stroke-width="1.51"/><path d="M598,939L810,978L853,787Z" fill="#d76a14" stroke="#d76a14" stroke-width="1.51"/><path d="M947,842L1028,902L1077,778Z" fill="#d45909" stroke="#d45909" stroke-width="1.51"/><path d="M1077,778L1242,774L1164,713Z" fill="#d55606" stroke="#d55606" stroke-width="1.51"/><path d="M380,956L545,990L553,813Z" fill="#d77f28" stroke="#d77f28" stroke-width="1.51"/><path d="M34,635L177,766L151,586Z" fill="#f8ac5c" stroke="#f8ac5c" stroke-width="1.51"/><path d="M810,978L943,939L853,787Z" fill="#d3610f" stroke="#d3610f" stroke-width="1.51"/><path d="M943,939L1028,902L947,842Z" fill="#d0580b" stroke="#d0580b" stroke-width="1.51"/><path d="M677,1095L799,1035L810,978Z" fill="#c26014" stroke="#c26014" stroke-width="1.51"/><path d="M380,956L553,813L409,800Z" fill="#e0882d" stroke="#e0882d" stroke-width="1.51"/><path d="M1289,280L1361,177L1311,136Z" fill="#de8b38" stroke="#de8b38" stroke-width="1.51"/><path d="M1311,136L1358,-26L1260,54Z" fill="#e19750" stroke="#e19750" stroke-width="1.51"/><path d="M1431,393L1361,177L1289,280Z" fill="#d88128" stroke="#d88128" stroke-width="1.51"/><path d="M1241,577L1383,552L1171,361Z" fill="#df6c14" stroke="#df6c14" stroke-width="1.51"/><path d="M1164,713L1318,599L1241,577Z" fill="#da5d0a" stroke="#da5d0a" stroke-width="1.51"/><path d="M1242,774L1318,599L1164,713Z" fill="#d45707" stroke="#d45707" stroke-width="1.51"/><path d="M184,946L380,956L409,800Z" fill="#db8c3d" stroke="#db8c3d" stroke-width="1.51"/><path d="M1227,-204L1122,-244L1070,-57Z" fill="#f4aa6e" stroke="#f4aa6e" stroke-width="1.51"/><path d="M979,-164L1122,-244L594,-218Z" fill="#ffbc7b" stroke="#ffbc7b" stroke-width="1.51"/><path d="M1227,-204L1070,-57L1229,-33Z" fill="#f1a665" stroke="#f1a665" stroke-width="1.51"/><path d="M67,524L34,635L151,586Z" fill="#fdb564" stroke="#fdb564" stroke-width="1.51"/><path d="M177,766L184,946L409,800Z" fill="#e69547" stroke="#e69547" stroke-width="1.51"/><path d="M-68,519L34,635L67,524Z" fill="#ffba6b" stroke="#ffba6b" stroke-width="1.51"/><path d="M1028,902L1242,774L1077,778Z" fill="#d25405" stroke="#d25405" stroke-width="1.51"/><path d="M943,939L1002,1049L1028,902Z" fill="#c4520b" stroke="#c4520b" stroke-width="1.51"/><path d="M810,978L799,1035L943,939Z" fill="#c75c10" stroke="#c75c10" stroke-width="1.51"/><path d="M677,1095L810,978L598,939Z" fill="#c96817" stroke="#c96817" stroke-width="1.51"/><path d="M326,-136L185,-225L236,-9Z" fill="#ffeba7" stroke="#ffeba7" stroke-width="1.51"/><path d="M457,-198L185,-225L326,-136Z" fill="#ffe8a4" stroke="#ffe8a4" stroke-width="1.51"/><path d="M594,-218L185,-225L457,-198Z" fill="#ffe39c" stroke="#ffe39c" stroke-width="1.51"/><path d="M1122,-244L185,-225L594,-218Z" fill="#ffd28c" stroke="#ffd28c" stroke-width="1.51"/><path d="M1318,599L1383,552L1241,577Z" fill="#d5600e" stroke="#d5600e" stroke-width="1.51"/><path d="M1449,635L1383,552L1318,599Z" fill="#cd5a0d" stroke="#cd5a0d" stroke-width="1.51"/><path d="M105,139L-66,291L116,173Z" fill="#ffe08b" stroke="#ffe08b" stroke-width="1.51"/><path d="M-115,125L-66,291L105,139Z" fill="#ffe495" stroke="#ffe495" stroke-width="1.51"/><path d="M1383,552L1431,393L1171,361Z" fill="#db7017" stroke="#db7017" stroke-width="1.51"/><path d="M1358,-26L1227,-204L1229,-33Z" fill="#e8a061" stroke="#e8a061" stroke-width="1.51"/><path d="M1536,41L1358,-26L1361,177Z" fill="#d5904d" stroke="#d5904d" stroke-width="1.51"/><path d="M1361,177L1358,-26L1311,136Z" fill="#dd924a" stroke="#dd924a" stroke-width="1.51"/><path d="M58,-136L40,-102L236,-9Z" fill="#fff0ae" stroke="#fff0ae" stroke-width="1.51"/><path d="M185,-225L58,-136L236,-9Z" fill="#ffefaf" stroke="#ffefaf" stroke-width="1.51"/><path d="M-100,379L-68,519L67,524Z" fill="#ffc674" stroke="#ffc674" stroke-width="1.51"/><path d="M-54,861L111,843L34,635Z" fill="#efa45e" stroke="#efa45e" stroke-width="1.51"/><path d="M34,635L111,843L177,766Z" fill="#f1a45a" stroke="#f1a45a" stroke-width="1.51"/><path d="M545,990L677,1095L598,939Z" fill="#c96f1f" stroke="#c96f1f" stroke-width="1.51"/><path d="M492,1084L677,1095L545,990Z" fill="#c27021" stroke="#c27021" stroke-width="1.51"/><path d="M492,1084L545,990L380,956Z" fill="#c97a28" stroke="#c97a28" stroke-width="1.51"/><path d="M-175,349L-100,379L-66,291Z" fill="#ffd687" stroke="#ffd687" stroke-width="1.51"/><path d="M-66,291L-100,379L128,354Z" fill="#ffd47e" stroke="#ffd47e" stroke-width="1.51"/><path d="M354,1113L492,1084L380,956Z" fill="#c37c31" stroke="#c37c31" stroke-width="1.51"/><path d="M799,1035L1002,1049L943,939Z" fill="#c1560e" stroke="#c1560e" stroke-width="1.51"/><path d="M1028,902L1198,1017L1242,774Z" fill="#c44b04" stroke="#c44b04" stroke-width="1.51"/><path d="M1071,1134L1002,1049L799,1035Z" fill="#b64f0d" stroke="#b64f0d" stroke-width="1.51"/><path d="M111,843L184,946L177,766Z" fill="#e59851" stroke="#e59851" stroke-width="1.51"/><path d="M-118,-7L-115,125L105,139Z" fill="#ffeda7" stroke="#ffeda7" stroke-width="1.51"/><path d="M-118,-7L105,139L40,-102Z" fill="#ffefac" stroke="#ffefac" stroke-width="1.51"/><path d="M1431,393L1503,200L1361,177Z" fill="#d1802c" stroke="#d1802c" stroke-width="1.51"/><path d="M1540,354L1503,200L1431,393Z" fill="#ca7624" stroke="#ca7624" stroke-width="1.51"/><path d="M1383,552L1496,489L1431,393Z" fill="#ce6514" stroke="#ce6514" stroke-width="1.51"/><path d="M1242,774L1449,635L1318,599Z" fill="#cd5409" stroke="#cd5409" stroke-width="1.51"/><path d="M1424,873L1449,635L1242,774Z" fill="#c14a04" stroke="#c14a04" stroke-width="1.51"/><path d="M1449,635L1496,489L1383,552Z" fill="#c95c10" stroke="#c95c10" stroke-width="1.51"/><path d="M58,-136L-38,-137L40,-102Z" fill="#fff6bb" stroke="#fff6bb" stroke-width="1.51"/><path d="M185,-225L-38,-137L58,-136Z" fill="#fff4bc" stroke="#fff4bc" stroke-width="1.51"/><path d="M-100,379L-226,512L-68,519Z" fill="#ffc87c" stroke="#ffc87c" stroke-width="1.51"/><path d="M-68,519L-132,641L34,635Z" fill="#feb86e" stroke="#feb86e" stroke-width="1.51"/><path d="M-218,219L-175,349L-66,291Z" fill="#ffdd8f" stroke="#ffdd8f" stroke-width="1.51"/><path d="M1694,336L1540,354L1696,500Z" fill="#b9661c" stroke="#b9661c" stroke-width="1.51"/><path d="M1496,489L1540,354L1431,393Z" fill="#c96a1a" stroke="#c96a1a" stroke-width="1.51"/><path d="M184,946L354,1113L380,956Z" fill="#cc853e" stroke="#cc853e" stroke-width="1.51"/><path d="M492,1084L354,1113L677,1095Z" fill="#bb7226" stroke="#bb7226" stroke-width="1.51"/><path d="M-115,125L-167,145L-66,291Z" fill="#ffe69c" stroke="#ffe69c" stroke-width="1.51"/><path d="M-38,-137L-118,-7L40,-102Z" fill="#fff6bb" stroke="#fff6bb" stroke-width="1.51"/><path d="M-118,-7L-167,145L-115,125Z" fill="#ffeeaf" stroke="#ffeeaf" stroke-width="1.51"/><path d="M1002,1049L1198,1017L1028,902Z" fill="#bb4a07" stroke="#bb4a07" stroke-width="1.51"/><path d="M1358,-26L1399,-179L1227,-204Z" fill="#e39e66" stroke="#e39e66" stroke-width="1.51"/><path d="M1227,-204L1493,-209L1122,-244Z" fill="#e9a26f" stroke="#e9a26f" stroke-width="1.51"/><path d="M1551,-61L1399,-179L1358,-26Z" fill="#d7975f" stroke="#d7975f" stroke-width="1.51"/><path d="M-226,512L-132,641L-68,519Z" fill="#ffbe78" stroke="#ffbe78" stroke-width="1.51"/><path d="M111,843L42,1004L184,946Z" fill="#d99453" stroke="#d99453" stroke-width="1.51"/><path d="M184,946L209,1135L354,1113Z" fill="#c28545" stroke="#c28545" stroke-width="1.51"/><path d="M1503,200L1536,41L1361,177Z" fill="#d08841" stroke="#d08841" stroke-width="1.51"/><path d="M1597,44L1536,41L1503,200Z" fill="#c78848" stroke="#c78848" stroke-width="1.51"/><path d="M-197,-98L-218,219L-167,145Z" fill="#ffefb4" stroke="#ffefb4" stroke-width="1.51"/><path d="M-167,145L-218,219L-66,291Z" fill="#ffe49a" stroke="#ffe49a" stroke-width="1.51"/><path d="M-175,349L-226,512L-100,379Z" fill="#ffce83" stroke="#ffce83" stroke-width="1.51"/><path d="M1198,1017L1324,951L1242,774Z" fill="#ba4303" stroke="#ba4303" stroke-width="1.51"/><path d="M1002,1049L1071,1134L1198,1017Z" fill="#af4609" stroke="#af4609" stroke-width="1.51"/><path d="M1198,1017L1225,1105L1324,951Z" fill="#ab3d04" stroke="#ab3d04" stroke-width="1.51"/><path d="M677,1095L1071,1134L799,1035Z" fill="#b75711" stroke="#b75711" stroke-width="1.51"/><path d="M354,1113L1071,1134L677,1095Z" fill="#b76118" stroke="#b76118" stroke-width="1.51"/><path d="M-132,641L-54,861L34,635Z" fill="#f6ad68" stroke="#f6ad68" stroke-width="1.51"/><path d="M-219,944L-68,985L-54,861Z" fill="#dc9b66" stroke="#dc9b66" stroke-width="1.51"/><path d="M-218,219L-226,512L-175,349Z" fill="#ffd58c" stroke="#ffd58c" stroke-width="1.51"/><path d="M1324,951L1424,873L1242,774Z" fill="#b94303" stroke="#b94303" stroke-width="1.51"/><path d="M1449,635L1598,707L1496,489Z" fill="#bf530d" stroke="#bf530d" stroke-width="1.51"/><path d="M-54,861L42,1004L111,843Z" fill="#de995a" stroke="#de995a" stroke-width="1.51"/><path d="M65,1096L209,1135L184,946Z" fill="#c5894e" stroke="#c5894e" stroke-width="1.51"/><path d="M354,1113L209,1135L1071,1134Z" fill="#b76e23" stroke="#b76e23" stroke-width="1.51"/><path d="M1536,41L1551,-61L1358,-26Z" fill="#d09155" stroke="#d09155" stroke-width="1.51"/><path d="M1597,44L1551,-61L1536,41Z" fill="#c78c52" stroke="#c78c52" stroke-width="1.51"/><path d="M1710,175L1597,44L1503,200Z" fill="#c08140" stroke="#c08140" stroke-width="1.51"/><path d="M1324,951L1473,936L1424,873Z" fill="#aa3b04" stroke="#aa3b04" stroke-width="1.51"/><path d="M1071,1134L1225,1105L1198,1017Z" fill="#a84007" stroke="#a84007" stroke-width="1.51"/><path d="M1399,-179L1493,-209L1227,-204Z" fill="#df9d6b" stroke="#df9d6b" stroke-width="1.51"/><path d="M1551,-61L1493,-209L1399,-179Z" fill="#d29664" stroke="#d29664" stroke-width="1.51"/><path d="M1652,-199L1493,-209L1551,-61Z" fill="#c89264" stroke="#c89264" stroke-width="1.51"/><path d="M-172,-215L-197,-98L-38,-137Z" fill="#fffacb" stroke="#fffacb" stroke-width="1.51"/><path d="M-38,-137L-197,-98L-118,-7Z" fill="#fff8c2" stroke="#fff8c2" stroke-width="1.51"/><path d="M-118,-7L-197,-98L-167,145Z" fill="#fff3b9" stroke="#fff3b9" stroke-width="1.51"/><path d="M1473,936L1560,771L1424,873Z" fill="#aa3c04" stroke="#aa3c04" stroke-width="1.51"/><path d="M1424,873L1560,771L1449,635Z" fill="#b74505" stroke="#b74505" stroke-width="1.51"/><path d="M1540,354L1694,336L1503,200Z" fill="#c17526" stroke="#c17526" stroke-width="1.51"/><path d="M42,1004L65,1096L184,946Z" fill="#cd8e53" stroke="#cd8e53" stroke-width="1.51"/><path d="M-22,1056L65,1096L42,1004Z" fill="#c78f58" stroke="#c78f58" stroke-width="1.51"/><path d="M1560,771L1598,707L1449,635Z" fill="#b54808" stroke="#b54808" stroke-width="1.51"/><path d="M-54,861L-68,985L42,1004Z" fill="#d8975e" stroke="#d8975e" stroke-width="1.51"/><path d="M-219,860L-54,861L-132,641Z" fill="#f0a76b" stroke="#f0a76b" stroke-width="1.51"/><path d="M185,-225L-172,-215L-38,-137Z" fill="#fff8c5" stroke="#fff8c5" stroke-width="1.51"/><path d="M1560,771L1625,790L1598,707Z" fill="#ab4107" stroke="#ab4107" stroke-width="1.51"/><path d="M1390,1071L1473,936L1324,951Z" fill="#a13804" stroke="#a13804" stroke-width="1.51"/><path d="M1696,500L1540,354L1496,489Z" fill="#c06317" stroke="#c06317" stroke-width="1.51"/><path d="M-226,512L-281,650L-132,641Z" fill="#ffba7b" stroke="#ffba7b" stroke-width="1.51"/><path d="M-218,219L-281,650L-226,512Z" fill="#ffca85" stroke="#ffca85" stroke-width="1.51"/><path d="M-197,-98L-281,650L-218,219Z" fill="#ffe199" stroke="#ffe199" stroke-width="1.51"/><path d="M-68,985L-22,1056L42,1004Z" fill="#ce925c" stroke="#ce925c" stroke-width="1.51"/><path d="M1598,707L1696,500L1496,489Z" fill="#b85510" stroke="#b85510" stroke-width="1.51"/><path d="M1225,1105L1390,1071L1324,951Z" fill="#a23904" stroke="#a23904" stroke-width="1.51"/><path d="M1716,-110L1652,-199L1551,-61Z" fill="#bf8e60" stroke="#bf8e60" stroke-width="1.51"/><path d="M1694,336L1710,175L1503,200Z" fill="#bb782f" stroke="#bb782f" stroke-width="1.51"/><path d="M1696,500L1710,175L1694,336Z" fill="#b36b22" stroke="#b36b22" stroke-width="1.51"/><path d="M-68,985L-155,1082L-22,1056Z" fill="#ca9260" stroke="#ca9260" stroke-width="1.51"/><path d="M-281,650L-219,860L-132,641Z" fill="#f8af75" stroke="#f8af75" stroke-width="1.51"/><path d="M1687,973L1625,790L1473,936Z" fill="#993605" stroke="#993605" stroke-width="1.51"/><path d="M1473,936L1625,790L1560,771Z" fill="#a73c04" stroke="#a73c04" stroke-width="1.51"/><path d="M1598,707L1625,790L1696,500Z" fill="#ad490b" stroke="#ad490b" stroke-width="1.51"/><path d="M-219,860L-219,944L-54,861Z" fill="#e39e6a" stroke="#e39e6a" stroke-width="1.51"/><path d="M-281,650L-219,944L-219,860Z" fill="#efa572" stroke="#efa572" stroke-width="1.51"/><path d="M1493,-209L1652,-199L1122,-244Z" fill="#da9b6d" stroke="#da9b6d" stroke-width="1.51"/><path d="M1716,-110L1551,-61L1597,44Z" fill="#c08c57" stroke="#c08c57" stroke-width="1.51"/><path d="M1710,175L1716,-110L1597,44Z" fill="#ba854e" stroke="#ba854e" stroke-width="1.51"/><path d="M-219,944L-155,1082L-68,985Z" fill="#d19666" stroke="#d19666" stroke-width="1.51"/><path d="M-22,1056L-155,1082L65,1096Z" fill="#c48f5d" stroke="#c48f5d" stroke-width="1.51"/><path d="M65,1096L-155,1082L209,1135Z" fill="#bf8b56" stroke="#bf8b56" stroke-width="1.51"/><path d="M1390,1071L1546,1108L1473,936Z" fill="#923205" stroke="#923205" stroke-width="1.51"/><path d="M1225,1105L1546,1108L1390,1071Z" fill="#933305" stroke="#933305" stroke-width="1.51"/><path d="M1071,1134L1546,1108L1225,1105Z" fill="#9a3806" stroke="#9a3806" stroke-width="1.51"/><path d="M1546,1108L1687,973L1473,936Z" fill="#8d3005" stroke="#8d3005" stroke-width="1.51"/><path d="M1625,790L1687,973L1696,500Z" fill="#a33f08" stroke="#a33f08" stroke-width="1.51"/><path d="M1696,500L1687,973L1710,175Z" fill="#ae5312" stroke="#ae5312" stroke-width="1.51"/><path d="M1546,1108L1638,1109L1687,973Z" fill="#7f2c06" stroke="#7f2c06" stroke-width="1.51"/><path d="M1071,1134L1638,1109L1546,1108Z" fill="#8c3106" stroke="#8c3106" stroke-width="1.51"/></svg>